<svg width="32" height="32" viewBox="0 0 32 32" fill="none" xmlns="http://www.w3.org/2000/svg">
<path d="M19.3273 16C19.3273 15.2636 19.9243 14.6667 20.6606 14.6667H20.6726C21.409 14.6667 22.0059 15.2636 22.0059 16C22.0059 16.7364 21.409 17.3333 20.6726 17.3333H20.6606C19.9243 17.3333 19.3273 16.7364 19.3273 16Z" fill="#666666"/>
<path d="M11.326 14.6667C10.5896 14.6667 9.99267 15.2636 9.99267 16C9.99267 16.7364 10.5896 17.3333 11.326 17.3333H11.338C12.0744 17.3333 12.6713 16.7364 12.6713 16C12.6713 15.2636 12.0744 14.6667 11.338 14.6667H11.326Z" fill="#666666"/>
<path fill-rule="evenodd" clip-rule="evenodd" d="M8.99999 9.74929V8.93334C8.99999 5.47734 11.7481 2.0455 15.3186 1.71118C19.487 1.30783 23 4.59174 23 8.68001V9.74927C25.0734 9.96984 26.5576 10.6335 27.502 11.7563C28.6731 13.1485 28.7827 14.9783 28.594 16.6833L28.5924 16.6974L27.5934 24.6889C27.446 26.0572 27.1008 27.5559 25.8796 28.6716C24.6647 29.7815 22.7826 30.3333 20.0001 30.3333H12.0001C9.21762 30.3333 7.33546 29.7815 6.1206 28.6716C4.89934 27.5559 4.55414 26.0571 4.40673 24.6888L3.40781 16.6974L3.40615 16.6833C3.21748 14.9783 3.3271 13.1485 4.49813 11.7563C5.44252 10.6335 6.92666 9.96988 8.99999 9.74929ZM15.5099 3.70201C18.4874 3.41315 21 5.75554 21 8.68001V9.66667H11V8.93334C11 6.38994 13.0776 3.92902 15.5063 3.70235L15.5099 3.70201ZM6.39236 24.4493L5.39326 16.4565C5.22321 14.9117 5.40066 13.7904 6.0287 13.0437C6.64815 12.3072 7.93747 11.6667 10.6667 11.6667H21.3334C24.0627 11.6667 25.352 12.3072 25.9715 13.0437C26.5995 13.7903 26.7769 14.9116 26.6069 16.4563L25.6078 24.4493L25.6058 24.4668C25.4726 25.7094 25.1967 26.5865 24.5306 27.195C23.8555 27.8118 22.5776 28.3333 20.0001 28.3333H12.0001C9.42255 28.3333 8.14471 27.8118 7.46957 27.195C6.80348 26.5865 6.52752 25.7094 6.39439 24.4668L6.39236 24.4493Z" fill="#666666"/>
</svg>
