<svg width="32" height="32" viewBox="0 0 32 32" fill="none" xmlns="http://www.w3.org/2000/svg">
<path fill-rule="evenodd" clip-rule="evenodd" d="M16 1.66667C12.1663 1.66667 9.08004 4.76919 9.08004 8.58667C9.08004 12.3245 12.0262 15.3679 15.7398 15.4928C15.7812 15.4942 15.8226 15.493 15.8639 15.4892C15.9535 15.4811 16.0496 15.4819 16.1139 15.4884C16.1581 15.4928 16.2026 15.4943 16.247 15.4928C19.9613 15.3679 22.9045 12.3247 22.92 8.59084L22.92 8.58667C22.92 4.76772 19.819 1.66667 16 1.66667ZM11.08 8.58667C11.08 5.87082 13.2738 3.66667 16 3.66667C18.7137 3.66667 20.9189 5.87119 20.92 8.58463C20.9079 11.2308 18.8412 13.3746 16.236 13.4917C16.0784 13.4803 15.9114 13.4808 15.7532 13.4918C13.1455 13.376 11.08 11.2307 11.08 8.58667Z" fill="#666666"/>
<path fill-rule="evenodd" clip-rule="evenodd" d="M23.4487 18.5818C21.4226 17.2286 18.8009 16.5833 16.2299 16.5833C13.6587 16.5833 11.0319 17.2287 8.99398 18.5799L8.9903 18.5823C7.16984 19.801 6.12659 21.5033 6.12659 23.3317C6.12659 25.1604 7.1702 26.8597 8.99168 28.0719C11.0238 29.4312 13.6483 30.08 16.2199 30.08C18.792 30.08 21.4171 29.4309 23.4493 28.0711C25.2698 26.8525 26.3133 25.1501 26.3133 23.3217C26.3133 21.4931 25.2698 19.7939 23.4487 18.5818ZM8.12659 23.3317C8.12659 22.3239 8.69617 21.1867 10.101 20.2456C11.7429 19.1576 13.962 18.5833 16.2299 18.5833C18.499 18.5833 20.7106 19.1581 22.3379 20.2449L22.3393 20.2459C23.7439 21.1804 24.3133 22.3141 24.3133 23.3217C24.3133 24.3299 23.7432 25.4677 22.337 26.409C20.7026 27.5025 18.4877 28.08 16.2199 28.08C13.952 28.08 11.7371 27.5024 10.1027 26.4089L10.1005 26.4074C8.69593 25.473 8.12659 24.3393 8.12659 23.3317Z" fill="#666666"/>
</svg>
